<?xml version="1.0" encoding="utf-8"?>
<!-- Generator: Adobe Illustrator 24.2.0, SVG Export Plug-In . SVG Version: 6.00 Build 0)  -->
<svg version="1.1" id="Capa_1" xmlns="http://www.w3.org/2000/svg" xmlns:xlink="http://www.w3.org/1999/xlink" x="0px" y="0px"
	 viewBox="0 0 612 792" style="enable-background:new 0 0 612 792;" xml:space="preserve">
<style type="text/css">
	.st0{fill:#FEFEFE;}
	.st1{fill:#373933;}
	.st2{fill:#383A33;}
	.st3{fill:#3B3D37;}
	.st4{fill:#FAFAFA;}
</style>
<g>
	<g>
		<path class="st0" d="M-35,612.5c0-144.5,0-289,0-433.5c227,0,454,0,681,0c0,144.5,0,289,0,433.5C419,612.5,192,612.5-35,612.5z
			 M377.09,283.79c0.63,0.84,0.99,1.1,1.02,1.39c0.79,9.45,1.56,18.91,2.32,28.37c0.76,9.57,1.08,19.2,2.38,28.69
			c1.4,10.23,2.57,20.63,7.85,29.9c3.96,6.94,7.8,13.95,11.78,20.88c0.92,1.61,2,3.28,3.42,4.39c0.89,0.69,2.57,0.37,3.89,0.51
			c-0.12-1.23,0.07-2.62-0.44-3.66c-0.82-1.65-2.33-2.94-3.18-4.58c-3.87-7.47-7.63-14.99-11.39-22.52
			c-3.11-6.25-5-13.07-5.29-16.66c-0.33-4.11-1.13-8.19-1.66-12.29c-0.87-6.68-1.85-13.35-2.5-20.05
			c-0.64-6.58-1.16-13.18-1.3-19.79c-0.19-9.08-0.03-18.17,0.12-27.26c0.03-1.83,1.14-4.1-1.53-4.58c-1.94-0.35-3.71,0.54-4.53,2.88
			c-1.25,3.55-2.54,7.15-4.34,10.44c-6.51,11.94-13.23,23.77-19.9,35.62c-0.36,0.65-0.95,1.17-1.42,1.73
			c-2.66-6.25-5.25-12.19-7.71-18.19c-0.85-2.07-1.29-4.3-2.04-6.42c-2.33-6.56-4.64-13.12-7.17-19.6c-0.4-1.03-1.89-2.13-2.97-2.24
			c-0.82-0.08-2.13,1.19-2.63,2.17c-1.69,3.34-2.99,6.87-4.66,10.21c-7.72,15.51-15.48,31.01-23.33,46.46
			c-1.35,2.65-3.41,4.95-4.75,7.6c-0.44,0.88,0.34,2.38,0.57,3.59c1.15-0.42,2.84-0.5,3.38-1.33c4.41-6.8,9.12-13.48,12.75-20.7
			c6.11-12.15,11.49-24.66,17.19-37.02c0.34-0.74,0.79-1.42,1.59-2.85c1.14,3.13,2.03,5.57,2.91,8.01
			c4.43,12.25,8.82,24.52,13.34,36.74c0.37,0.99,1.55,2.23,2.47,2.33c0.91,0.1,2.15-0.91,2.91-1.75c0.91-0.99,1.51-2.29,2.17-3.49
			c5.49-10.08,10.94-20.19,16.46-30.26C374.08,288.27,375.56,286.2,377.09,283.79z M217.08,329.37c-0.44-0.79-0.82-1.4-1.13-2.05
			c-4.87-10.07-7.34-20.83-9.42-31.73c-0.29-1.54-1.8-2.84-2.74-4.25c-0.89,1.4-2.05,2.71-2.63,4.23c-1.26,3.32-1.74,7.02-3.4,10.1
			c-7.55,13.97-16.49,27.03-27.34,38.65c-5.92,6.34-12.42,12.13-18.54,18.29c-0.78,0.79-0.85,2.29-1.24,3.46
			c1.31,0.15,2.9,0.85,3.88,0.35c2.08-1.07,3.94-2.64,5.71-4.21c14.67-13.09,26.29-28.66,36.57-45.3c2.11-3.41,4.15-6.87,6.15-10.17
			c3.39,8.75,6.65,17.06,9.77,25.43c0.32,0.86-0.33,2.03-0.33,3.06c-0.01,1.12,0.22,2.24,0.34,3.36c1.14-0.18,2.59,0.02,3.36-0.61
			c1.73-1.4,3.32-3.07,4.62-4.88c5-7,9.91-14.06,14.77-21.16c3.16-4.63,6.33-9.26,9.21-14.07c1.8-3,3.05-6.33,4.56-9.52
			c0.5,0.28,0.83,0.36,0.9,0.53c0.4,1.05,0.71,2.12,1.09,3.18c3.91,11.04,7.65,22.14,11.84,33.07c1.73,4.51,4.3,8.73,6.79,12.91
			c0.55,0.92,2.39,1.08,3.64,1.59c0.15-1.32,0.6-2.7,0.37-3.96c-0.21-1.16-1.16-2.18-1.76-3.27c-9.2-16.78-15.44-34.59-18.8-53.43
			c-0.22-1.21-1.5-2.24-2.28-3.35c-1.08,0.86-2.64,1.51-3.15,2.63c-2.42,5.34-3.87,11.22-6.91,16.14
			c-7.14,11.54-15,22.65-22.58,33.91C218.08,328.66,217.62,328.9,217.08,329.37z M145.28,448.36c1.34-0.5,1.9-0.75,2.48-0.93
			c8.58-2.68,17.17-5.32,25.73-8.05c1.83-0.58,4.54-0.96,3.73-3.68c-0.94-3.16-3.47-1.42-5.32-0.84
			c-6.56,2.04-13.06,4.26-19.62,6.31c-2.43,0.76-4.95,1.25-7.58,1.9c-1.1-5.06-1.88-9.63-3.15-14.05c-0.89-3.12,0.07-4.61,2.78-6.14
			c7.16-4.04,14.19-8.33,21.1-12.8c1.04-0.67,2.03-3.39,1.53-4.12c-1.24-1.81-2.82-0.89-4.64,0.32
			c-7.32,4.86-14.89,9.35-22.48,14.06c-1.64-3.41-2.73-6.21-4.31-8.7c-0.6-0.95-2.31-1.21-3.52-1.78c-0.22,1.31-0.88,2.75-0.56,3.91
			c0.55,2.02,1.94,3.8,2.53,5.81c0.29,1.01-0.06,3.02-0.74,3.37c-10.62,5.46-21.42,10.3-33.92,8.05c-1-0.18-2.23,0.93-3.36,1.44
			c0.8,1.06,1.41,2.74,2.43,3.05c2.34,0.71,4.92,1.17,7.34,0.98c8.65-0.69,17.07-2.41,24.76-6.73c1.6-0.9,3.34-1.54,5.3-2.43
			c1.24,5.8,2.4,11.21,3.74,17.51c-5.47,0-10.09-0.13-14.68,0.1c-1.03,0.05-2,1.37-3,2.1c0.92,0.84,1.72,1.93,2.8,2.43
			c0.95,0.44,2.21,0.28,3.33,0.24c4.2-0.15,8.4-0.35,12.82-0.55c0.32,2.24,0.49,4.22,0.91,6.15c1.52,7.08,3.02,14.16,4.79,21.17
			c0.26,1.03,1.94,1.7,2.97,2.53c0.53-1.23,1.43-2.45,1.49-3.7c0.07-1.29-0.79-2.6-1.06-3.94
			C148.33,463.7,146.82,456.03,145.28,448.36z M375.23,413.69c3.02,0.28,7.03,0.44,10.97,1.06c7.23,1.14,13.57,4.95,17.62,10.5
			c6.84,9.38,5.36,20.14-6.73,26.36c-16.22,8.34-33.48,13.07-52.04,9.05c-0.85-0.18-1.79-0.57-2.55-0.37
			c-0.84,0.23-1.95,0.91-2.15,1.62c-0.2,0.71,0.36,2.03,1,2.47c0.98,0.67,2.31,0.83,3.5,1.19c8.14,2.43,16.29,1.62,24.48,0.17
			c11.76-2.09,23.28-4.9,33.27-11.8c11.9-8.21,13.16-26.14,2.51-34.66c-7.02-5.61-14.61-9.7-24.05-10.12
			c-15.36-0.68-30.01,0.7-42.33,11.11c-1.06,0.89-1.35,2.7-2,4.08c1.67-0.12,3.89,0.41,4.93-0.46
			C351.17,415.94,362.44,414.05,375.23,413.69z M204.47,445.46c0.03,0,0.07,0,0.1,0.01c-0.1,2.24-0.27,4.49-0.3,6.73
			c-0.07,5.66,1.61,8.42,7.07,9.28c7.43,1.18,15.08,1.26,22.04-2.07c10.9-5.22,17.77-13.77,19.81-25.94
			c0.97-5.77-1.46-10.27-7.08-11.83c-3.59-1-7.33-1.92-11.01-1.97c-4.41-0.06-8.87,0.68-13.23,1.48c-0.98,0.18-1.65,2.01-2.47,3.08
			c1.17,0.49,2.31,1.09,3.53,1.43c0.52,0.15,1.2-0.24,1.8-0.39c6.63-1.71,13.14-0.66,19.62,0.88c2.57,0.61,4.66,2.22,4.11,4.95
			c-1.28,6.33-2.6,12.7-7.69,17.46c-7.41,6.93-16.18,9.47-26.12,8.63c-4.59-0.39-5.72-1.43-5.51-6.02
			c0.39-8.47,1.05-16.94,1.31-25.41c0.04-1.29-1.45-2.62-2.23-3.94c-0.85,1.29-2.3,2.52-2.43,3.88
			C205.16,432.25,204.88,438.86,204.47,445.46z M293.53,420.79c-0.75,0.1-2.5,0.22-4.21,0.57c-4.97,1.04-8.75,4.2-12.99,6.69
			c-6.48,3.81-9.63,9.03-11.61,15.61c-1.54,5.11-0.5,8.18,3.74,11.51c6.38,5.01,14.09,6.71,21.75,8.34
			c1.93,0.41,4.21-0.28,6.22-0.86c8.1-2.33,12.25-8.56,15.31-15.83C317.24,433.7,308.79,420.88,293.53,420.79z M358.88,454.66
			c-0.48-6.89-0.66-12.51-1.34-18.08c-0.48-3.93-1.41-7.84-2.6-11.61c-0.39-1.22-2.27-1.97-3.46-2.94
			c-0.33,1.52-1.11,3.09-0.92,4.54c0.62,4.79,1.72,9.52,2.37,14.31c0.58,4.33,0.62,8.73,1.3,13.04c0.19,1.21,1.77,2.21,2.71,3.3
			C357.79,456.08,358.66,454.94,358.88,454.66z"/>
		<path class="st1" d="M377.09,283.79c-1.53,2.41-3.01,4.48-4.23,6.7c-5.53,10.07-10.97,20.17-16.46,30.26
			c-0.66,1.21-1.26,2.5-2.17,3.49c-0.76,0.83-2,1.85-2.91,1.75c-0.92-0.1-2.1-1.33-2.47-2.33c-4.52-12.22-8.91-24.49-13.34-36.74
			c-0.88-2.44-1.77-4.88-2.91-8.01c-0.8,1.42-1.25,2.11-1.59,2.85c-5.7,12.36-11.08,24.87-17.19,37.02
			c-3.63,7.22-8.34,13.9-12.75,20.7c-0.54,0.83-2.22,0.9-3.38,1.33c-0.22-1.22-1.01-2.71-0.57-3.59c1.34-2.66,3.4-4.95,4.75-7.6
			c7.85-15.45,15.61-30.95,23.33-46.46c1.67-3.35,2.97-6.88,4.66-10.21c0.49-0.98,1.81-2.25,2.63-2.17
			c1.08,0.11,2.57,1.21,2.97,2.24c2.54,6.48,4.84,13.04,7.17,19.6c0.75,2.11,1.19,4.35,2.04,6.42c2.46,6,5.05,11.94,7.71,18.19
			c0.47-0.57,1.05-1.09,1.42-1.73c6.67-11.86,13.39-23.68,19.9-35.62c1.8-3.29,3.09-6.89,4.34-10.44c0.82-2.33,2.59-3.23,4.53-2.88
			c2.67,0.48,1.56,2.75,1.53,4.58c-0.15,9.08-0.31,18.17-0.12,27.26c0.14,6.6,0.67,13.21,1.3,19.79c0.65,6.7,1.63,13.37,2.5,20.05
			c0.54,4.1,1.33,8.17,1.66,12.29c0.29,3.6,2.18,10.42,5.29,16.66c3.75,7.53,7.52,15.05,11.39,22.52c0.85,1.64,2.36,2.94,3.18,4.58
			c0.52,1.04,0.32,2.43,0.44,3.66c-1.32-0.14-3,0.18-3.89-0.51c-1.42-1.1-2.5-2.78-3.42-4.39c-3.98-6.93-7.82-13.94-11.78-20.88
			c-5.29-9.27-6.45-19.67-7.85-29.9c-1.3-9.49-1.62-19.12-2.38-28.69c-0.76-9.46-1.52-18.91-2.32-28.37
			C378.08,284.89,377.72,284.63,377.09,283.79z"/>
		<path class="st2" d="M217.08,329.37c0.55-0.46,1-0.7,1.26-1.08c7.58-11.27,15.44-22.37,22.58-33.91c3.04-4.92,4.5-10.8,6.91-16.14
			c0.51-1.12,2.07-1.76,3.15-2.63c0.79,1.11,2.07,2.13,2.28,3.35c3.37,18.84,9.6,36.66,18.8,53.43c0.6,1.09,1.55,2.11,1.76,3.27
			c0.23,1.26-0.22,2.63-0.37,3.96c-1.25-0.51-3.08-0.66-3.64-1.59c-2.49-4.17-5.06-8.39-6.79-12.91
			c-4.19-10.93-7.92-22.03-11.84-33.07c-0.37-1.06-0.69-2.13-1.09-3.18c-0.07-0.17-0.4-0.25-0.9-0.53c-1.51,3.2-2.76,6.52-4.56,9.52
			c-2.88,4.81-6.04,9.44-9.21,14.07c-4.86,7.1-9.76,14.16-14.77,21.16c-1.3,1.81-2.89,3.48-4.62,4.88
			c-0.78,0.63-2.22,0.43-3.36,0.61c-0.12-1.12-0.34-2.24-0.34-3.36c0-1.03,0.65-2.2,0.33-3.06c-3.12-8.37-6.38-16.68-9.77-25.43
			c-1.99,3.3-4.04,6.76-6.15,10.17c-10.28,16.64-21.89,32.21-36.57,45.3c-1.76,1.57-3.63,3.14-5.71,4.21
			c-0.98,0.5-2.57-0.19-3.88-0.35c0.4-1.17,0.46-2.68,1.24-3.46c6.12-6.16,12.62-11.95,18.54-18.29
			c10.85-11.62,19.79-24.68,27.34-38.65c1.66-3.08,2.14-6.78,3.4-10.1c0.58-1.52,1.73-2.83,2.63-4.23c0.94,1.41,2.45,2.71,2.74,4.25
			c2.08,10.9,4.55,21.67,9.42,31.73C216.26,327.96,216.64,328.58,217.08,329.37z"/>
		<path class="st1" d="M145.28,448.36c1.54,7.67,3.06,15.35,4.63,23.01c0.27,1.34,1.13,2.65,1.06,3.94
			c-0.06,1.26-0.96,2.47-1.49,3.7c-1.02-0.84-2.71-1.51-2.97-2.53c-1.77-7.01-3.27-14.1-4.79-21.17c-0.41-1.93-0.58-3.91-0.91-6.15
			c-4.43,0.19-8.62,0.4-12.82,0.55c-1.12,0.04-2.38,0.2-3.33-0.24c-1.08-0.49-1.88-1.59-2.8-2.43c1-0.74,1.96-2.05,3-2.1
			c4.59-0.23,9.21-0.1,14.68-0.1c-1.35-6.3-2.5-11.71-3.74-17.51c-1.96,0.89-3.7,1.53-5.3,2.43c-7.7,4.32-16.12,6.04-24.76,6.73
			c-2.42,0.19-5-0.27-7.34-0.98c-1.02-0.31-1.63-1.99-2.43-3.05c1.12-0.51,2.36-1.62,3.36-1.44c12.5,2.25,23.3-2.58,33.92-8.05
			c0.68-0.35,1.04-2.36,0.74-3.37c-0.58-2.01-1.97-3.8-2.53-5.81c-0.32-1.17,0.34-2.6,0.56-3.91c1.2,0.57,2.91,0.83,3.52,1.78
			c1.58,2.49,2.67,5.29,4.31,8.7c7.59-4.7,15.16-9.19,22.48-14.06c1.82-1.21,3.4-2.14,4.64-0.32c0.5,0.73-0.48,3.45-1.53,4.12
			c-6.91,4.46-13.94,8.75-21.1,12.8c-2.71,1.53-3.67,3.03-2.78,6.14c1.27,4.43,2.04,9,3.15,14.05c2.63-0.65,5.15-1.14,7.58-1.9
			c6.56-2.05,13.06-4.27,19.62-6.31c1.85-0.58,4.38-2.32,5.32,0.84c0.81,2.72-1.91,3.1-3.73,3.68c-8.57,2.72-17.15,5.37-25.73,8.05
			C147.18,447.61,146.62,447.85,145.28,448.36z"/>
		<path class="st2" d="M375.23,413.69c-12.8,0.36-24.07,2.25-33.57,10.19c-1.04,0.87-3.26,0.34-4.93,0.46
			c0.65-1.38,0.94-3.18,2-4.08c12.32-10.41,26.97-11.79,42.33-11.11c9.44,0.42,17.03,4.51,24.05,10.12
			c10.65,8.52,9.4,26.45-2.51,34.66c-9.99,6.89-21.51,9.71-33.27,11.8c-8.19,1.45-16.34,2.26-24.48-0.17
			c-1.19-0.36-2.52-0.51-3.5-1.19c-0.64-0.44-1.2-1.76-1-2.47c0.2-0.71,1.31-1.39,2.15-1.62c0.76-0.21,1.7,0.19,2.55,0.37
			c18.57,4.02,35.82-0.71,52.04-9.05c12.09-6.22,13.56-16.98,6.73-26.36c-4.04-5.55-10.39-9.36-17.62-10.5
			C382.27,414.13,378.25,413.97,375.23,413.69z"/>
		<path class="st1" d="M204.47,445.46c0.4-6.6,0.68-13.21,1.32-19.78c0.13-1.36,1.59-2.59,2.43-3.88c0.78,1.31,2.27,2.65,2.23,3.94
			c-0.26,8.48-0.92,16.94-1.31,25.41c-0.21,4.59,0.92,5.64,5.51,6.02c9.95,0.84,18.71-1.7,26.12-8.63
			c5.08-4.75,6.41-11.13,7.69-17.46c0.55-2.73-1.54-4.34-4.11-4.95c-6.48-1.53-12.99-2.59-19.62-0.88c-0.6,0.16-1.28,0.54-1.8,0.39
			c-1.21-0.34-2.36-0.94-3.53-1.43c0.81-1.07,1.49-2.91,2.47-3.08c4.36-0.79,8.82-1.53,13.23-1.48c3.68,0.05,7.42,0.97,11.01,1.97
			c5.62,1.56,8.05,6.07,7.08,11.83c-2.04,12.17-8.91,20.72-19.81,25.94c-6.96,3.33-14.61,3.25-22.04,2.07
			c-5.46-0.87-7.15-3.63-7.07-9.28c0.03-2.24,0.19-4.49,0.3-6.73C204.54,445.46,204.51,445.46,204.47,445.46z"/>
		<path class="st2" d="M293.53,420.79c15.26,0.09,23.72,12.91,18.19,26.05c-3.06,7.27-7.21,13.5-15.31,15.83
			c-2.01,0.58-4.28,1.27-6.22,0.86c-7.66-1.63-15.37-3.32-21.75-8.34c-4.24-3.33-5.27-6.41-3.74-11.51
			c1.98-6.58,5.13-11.81,11.61-15.61c4.25-2.5,8.03-5.66,12.99-6.69C291.02,421.01,292.78,420.89,293.53,420.79z M294.1,424.85
			c-3.29,1.27-6.67,2.35-9.83,3.87c-1.54,0.74-2.5,2.91-4.04,3.37c-6.47,1.95-9.09,6.84-10.87,12.73c-0.85,2.84-0.4,5.33,2.14,6.44
			c6.34,2.76,12.85,5.16,19.38,7.46c1.12,0.4,2.69-0.26,3.99-0.64c6.69-1.94,9.88-7.22,12.38-13.13
			C311.44,435.06,305.12,425.55,294.1,424.85z"/>
		<path class="st3" d="M358.88,454.66c-0.22,0.28-1.09,1.42-1.96,2.55c-0.94-1.09-2.52-2.09-2.71-3.3
			c-0.67-4.31-0.72-8.71-1.3-13.04c-0.64-4.79-1.75-9.52-2.37-14.31c-0.19-1.45,0.59-3.02,0.92-4.54c1.2,0.97,3.08,1.71,3.46,2.94
			c1.2,3.77,2.13,7.69,2.6,11.61C358.22,442.15,358.4,447.77,358.88,454.66z"/>
		<path class="st4" d="M294.1,424.85c11.03,0.7,17.34,10.2,13.15,20.1c-2.5,5.91-5.69,11.2-12.38,13.13
			c-1.3,0.38-2.87,1.04-3.99,0.64c-6.53-2.3-13.04-4.69-19.38-7.46c-2.54-1.11-2.99-3.6-2.14-6.44c1.77-5.89,4.39-10.78,10.87-12.73
			c1.54-0.46,2.5-2.63,4.04-3.37C287.43,427.21,290.81,426.12,294.1,424.85z"/>
	</g>
</g>
</svg>
